<svg width="109" height="66" viewBox="0 0 109 66" fill="none" xmlns="http://www.w3.org/2000/svg">
<g filter="url(#filter0_d_3_3)">
<path d="M10.731 18.2H4.636V12.9H22.656V18.2H16.561V50H10.731V18.2ZM25.4787 12.9H32.7927L38.4637 35.107H38.5697V12.9H43.7637V50H37.7747L30.7787 22.917H30.6727V50H25.4787V12.9ZM52.6548 18.2H46.5598V12.9H64.5798V18.2H58.4848V50H52.6548V18.2ZM66.2365 44.806L77.0485 18.2H66.7665V12.9H83.3025V18.094L72.4905 44.7H83.3025V50H66.2365V44.806ZM86.6046 12.9H95.2436C98.247 12.9 100.438 13.6067 101.816 15.02C103.194 16.398 103.883 18.5357 103.883 21.433V23.712C103.883 27.5633 102.611 30.0013 100.067 31.026V31.132C101.48 31.556 102.469 32.4217 103.035 33.729C103.635 35.0363 103.936 36.7853 103.936 38.976V45.495C103.936 46.555 103.971 47.4207 104.042 48.092C104.112 48.728 104.289 49.364 104.572 50H98.6356C98.4236 49.3993 98.2823 48.834 98.2116 48.304C98.141 47.774 98.1056 46.82 98.1056 45.442V38.658C98.1056 36.962 97.823 35.7783 97.2576 35.107C96.7276 34.4357 95.7913 34.1 94.4486 34.1H92.4346V50H86.6046V12.9ZM94.5546 28.8C95.7206 28.8 96.5863 28.4997 97.1516 27.899C97.7523 27.2983 98.0526 26.2913 98.0526 24.878V22.016C98.0526 20.6733 97.8053 19.7017 97.3106 19.101C96.8513 18.5003 96.1093 18.2 95.0846 18.2H92.4346V28.8H94.5546Z" fill="#FF914D"/>
</g>
<path d="M21.7739 47.5611C21.584 47.7056 21.3843 47.7976 21.1747 47.8372C20.7554 47.9164 20.3628 47.7056 19.9968 47.2048C19.7703 46.8677 19.5977 46.3847 19.4789 45.7558C19.3551 45.1007 19.2763 44.3964 19.2426 43.6429C19.2088 42.8894 19.1877 42.4185 19.1792 42.2301C19.1134 39.583 19.394 36.3277 20.021 32.4641C20.0728 32.0201 20.1427 31.5999 20.2306 31.2033L20.3817 30.2792C20.4207 30.0547 20.4278 29.877 20.4031 29.746C20.3783 29.615 20.298 29.5487 20.162 29.5473C20.0473 29.5147 19.8614 29.5362 19.6043 29.6119L16.4949 30.6064C16.395 30.6524 16.269 30.7034 16.1167 30.7593C15.9644 30.8152 15.7704 30.8654 15.5345 30.9099C15.3511 30.9446 15.2045 30.9587 15.0948 30.9523C14.9276 30.9296 14.8211 30.8683 14.7751 30.7685L14.7528 30.6505C14.7231 30.4933 14.7688 30.3761 14.8899 30.299C15.1371 30.1709 15.4866 30.0099 15.9385 29.8159C16.731 29.5577 18.1007 29.1225 20.0476 28.5105C20.5143 28.3952 20.7997 28.1106 20.904 27.6567L21.5197 25.0979C21.833 24.1703 22.081 23.4722 22.2638 23.0034C22.3241 22.7478 22.4229 22.5527 22.5604 22.4182C22.6928 22.2575 22.8246 22.1647 22.9556 22.14C23.0604 22.1202 23.1464 22.1446 23.2137 22.2133C23.3071 22.2771 23.3663 22.3745 23.391 22.5055C23.4207 22.6627 23.3997 22.9109 23.3281 23.2501C23.2175 23.8138 22.9307 24.9535 22.4679 26.6692C22.4515 26.7266 22.4214 26.8544 22.3775 27.0527C22.3285 27.2247 22.3264 27.4287 22.3709 27.6645C22.6429 27.6674 22.8181 27.6615 22.8967 27.6466L23.3217 27.5256C24.5285 27.162 25.6878 26.8344 26.7997 26.5429L30.3489 25.5061C30.6584 25.4205 30.9335 25.3685 31.1743 25.3502C31.4101 25.3056 31.6067 25.2685 31.7639 25.2388C31.9211 25.2091 32.0507 25.3203 32.1526 25.5724C32.1922 25.7821 32.1383 25.9279 31.991 26.01C31.7389 26.1119 31.4081 26.2287 30.9988 26.3603L22.6893 28.7035C22.406 28.7841 22.185 28.9073 22.0264 29.073C21.8628 29.2124 21.7533 29.4231 21.698 29.7049C21.4293 30.8683 21.1271 32.7166 20.7914 35.2495C20.4509 37.7563 20.2634 39.6372 20.2291 40.892C20.165 41.9896 20.216 43.3369 20.382 44.9339C20.4067 45.0649 20.4184 45.1984 20.4169 45.3343C20.4155 45.4703 20.4271 45.6038 20.4519 45.7348C20.5311 46.1541 20.7371 46.4544 21.0699 46.6357C21.3269 46.56 21.5192 46.4287 21.6468 46.2418C21.7792 46.0811 21.8936 45.8967 21.99 45.6885C22.1175 45.5016 22.2001 45.3638 22.2376 45.2753C22.8569 44.1 23.6646 42.4141 24.6609 40.2176C24.8161 39.8898 25.1665 39.1587 25.712 38.0244C26.2527 36.8639 26.648 36.0836 26.8981 35.6835C26.9194 35.6524 26.9782 35.5327 27.0746 35.3245C27.1922 35.0852 27.3721 34.8884 27.6143 34.7341C27.7617 34.652 27.9083 34.6378 28.0541 34.6917C28.2934 34.8093 28.3699 34.9984 28.2834 35.259C28.2983 35.3376 28.2738 35.4236 28.21 35.5171C27.8211 36.1876 27.0835 37.6703 25.9973 39.9652C25.8208 40.3242 25.3847 41.2478 24.6889 42.7362C23.9881 44.1983 23.3289 45.4491 22.7111 46.4885C22.5183 46.9049 22.2059 47.2624 21.7739 47.5611ZM30.1677 40.887C29.8405 41.166 29.4935 41.3401 29.1266 41.4094C28.6549 41.4985 28.2085 41.4336 27.7872 41.2146C27.3609 40.9695 27.0484 40.6079 26.8495 40.1298C26.7016 39.7778 26.611 39.4421 26.5779 39.1228C26.4282 37.4685 26.7742 35.9241 27.6158 34.4895C27.8723 33.9797 28.1847 33.6222 28.553 33.4169C28.6954 33.3086 28.8583 33.2372 29.0417 33.2025C29.3137 33.2054 29.4825 33.3092 29.5483 33.5139L29.578 33.6711C29.6176 33.8807 29.5613 34.0135 29.409 34.0694C29.0308 34.2222 28.7567 34.4233 28.5867 34.6725C28.4167 34.9217 28.2215 35.325 28.0011 35.8822C27.758 36.6066 27.6222 37.3243 27.5936 38.0353C27.5482 38.3695 27.5676 38.7594 27.6518 39.2048C27.7359 39.6503 27.8789 39.9761 28.0806 40.1822C28.3086 40.3834 28.5929 40.4518 28.9336 40.3875C29.1432 40.3479 29.3404 40.2427 29.5253 40.0721C29.7102 39.9015 29.8459 39.6859 29.9323 39.4253C30.1428 38.8157 30.2109 38.3143 30.1367 37.9213C30.0674 37.5544 29.8777 37.1967 29.5676 36.8482C29.4331 36.7108 29.2526 36.4735 29.0261 36.1364L29.0038 36.0185C28.979 35.8875 28.9985 35.7752 29.0623 35.6818C29.1261 35.5883 29.2079 35.5186 29.3077 35.4726L30.5262 35.2424C31.0077 35.2057 31.7192 34.9492 32.6604 34.4729L34.6737 33.2784L35.2729 33.0024C35.4825 32.9628 35.6726 33.0354 35.8432 33.2203C35.8793 33.2677 35.9048 33.3308 35.9197 33.4094C35.9593 33.619 35.8686 33.7854 35.6476 33.9086L34.6606 34.5021C34.5133 34.5842 34.0975 34.8256 33.4133 35.2262C32.7504 35.5957 32.0726 35.8865 31.38 36.0988C31.1229 36.1745 30.96 36.246 30.8913 36.3132C30.8176 36.3543 30.7932 36.4403 30.8179 36.5713C30.8476 36.7286 30.888 36.8702 30.9389 36.9963C31.0507 37.3008 31.1215 37.5317 31.1512 37.6889C31.2452 38.1868 31.2238 38.72 31.087 39.2886C30.9339 39.9146 30.6275 40.4474 30.1677 40.887ZM37.396 44.61C37.2062 44.7544 37.0065 44.8464 36.7968 44.886C36.3776 44.9652 35.985 44.7544 35.619 44.2537C35.3925 43.9165 35.2198 43.4335 35.101 42.8046C34.9772 42.1495 34.8985 41.4453 34.8647 40.6918C34.8309 39.9383 34.8098 39.4673 34.8013 39.279C34.7355 36.6319 35.0161 33.3765 35.6431 29.513C35.695 29.069 35.7648 28.6487 35.8527 28.2522L36.0038 27.3281C36.0428 27.1036 36.05 26.9258 36.0252 26.7948C36.0005 26.6638 35.9201 26.5976 35.7841 26.5961C35.6694 26.5635 35.4835 26.5851 35.2265 26.6608L32.117 27.6552C32.0172 27.7012 31.8911 27.7522 31.7388 27.8081C31.5865 27.864 31.3925 27.9142 31.1567 27.9588C30.9732 27.9934 30.8267 28.0076 30.7169 28.0011C30.5498 27.9784 30.4432 27.9172 30.3972 27.8173L30.3749 27.6994C30.3452 27.5422 30.3909 27.425 30.5121 27.3478C30.7592 27.2197 31.1088 27.0587 31.5606 26.8648C32.3531 26.6065 33.7228 26.1714 35.6697 25.5593C36.1364 25.444 36.4219 25.1594 36.5261 24.7055L37.1418 22.1468C37.4551 21.2192 37.7031 20.521 37.886 20.0522C37.9462 19.7966 38.0451 19.6015 38.1825 19.467C38.315 19.3063 38.4467 19.2136 38.5777 19.1888C38.6825 19.169 38.7686 19.1935 38.8358 19.2622C38.9293 19.3259 38.9884 19.4233 39.0131 19.5544C39.0428 19.7116 39.0219 19.9598 38.9503 20.299C38.8396 20.8626 38.5529 22.0023 38.09 23.7181C38.0737 23.7754 38.0435 23.9032 37.9996 24.1015C37.9507 24.2736 37.9485 24.4775 37.993 24.7134C38.265 24.7163 38.4403 24.7103 38.5189 24.6954L38.9438 24.5745C40.1506 24.2108 41.3099 23.8832 42.4218 23.5918L45.971 22.5549C46.2805 22.4693 46.5557 22.4174 46.7964 22.399C47.0323 22.3545 47.2288 22.3173 47.386 22.2876C47.5432 22.2579 47.6728 22.3691 47.7747 22.6213C47.8143 22.8309 47.7604 22.9768 47.6131 23.0589C47.361 23.1608 47.0303 23.2775 46.6209 23.4091L38.3114 25.7523C38.0282 25.833 37.8072 25.9561 37.6485 26.1218C37.4849 26.2613 37.3754 26.4719 37.3201 26.7537C37.0514 27.9172 36.7492 29.7654 36.4136 32.2984C36.073 34.8052 35.8855 36.686 35.8512 37.9408C35.7872 39.0385 35.8381 40.3858 36.0041 41.9827C36.0289 42.1137 36.0405 42.2472 36.0391 42.3832C36.0376 42.5191 36.0493 42.6526 36.074 42.7836C36.1532 43.2029 36.3592 43.5032 36.692 43.6846C36.9491 43.6089 37.1414 43.4776 37.2689 43.2907C37.4014 43.1299 37.5158 42.9455 37.6121 42.7373C37.7397 42.5504 37.8222 42.4127 37.8598 42.3242C38.479 41.1488 39.2868 39.4629 40.283 37.2665C40.4382 36.9386 40.7886 36.2075 41.3342 35.0732C41.8748 33.9127 42.2702 33.1324 42.5203 32.7324C42.5415 32.7012 42.6003 32.5815 42.6967 32.3734C42.8143 32.134 42.9942 31.9372 43.2365 31.7829C43.3838 31.7008 43.5304 31.6867 43.6762 31.7405C43.9156 31.8582 43.992 32.0473 43.9055 32.3078C43.9204 32.3865 43.8959 32.4725 43.8322 32.5659C43.4432 33.2365 42.7056 34.7192 41.6194 37.014C41.443 37.373 41.0068 38.2967 40.311 39.785C39.6103 41.2472 38.951 42.498 38.3332 43.5374C38.1405 43.9537 37.8281 44.3113 37.396 44.61ZM43.9419 28.8001C43.7847 28.8298 43.6413 28.7891 43.5117 28.6779C43.3772 28.5404 43.2771 28.3694 43.2113 28.1647C43.1222 27.6931 43.3135 27.4127 43.7851 27.3236C43.9947 27.284 44.1774 27.3173 44.3332 27.4236C44.5102 27.4987 44.6292 27.6255 44.69 27.8039C44.7296 28.0136 44.675 28.2274 44.5262 28.4455C44.3987 28.6324 44.2302 28.7457 44.0205 28.7853L43.9419 28.8001ZM45.2776 38.8875C45.1778 38.9335 45.0492 38.9714 44.892 39.0011C44.5251 39.0704 44.1778 39.0274 43.85 38.8722C43.5483 38.7121 43.3129 38.4716 43.1438 38.1508C42.9895 37.9086 42.848 37.4468 42.7193 36.7655C42.5902 34.646 42.6583 32.9234 42.9235 31.5978C43.0441 31.0865 43.1787 30.7219 43.3275 30.5038C43.4812 30.3119 43.6753 30.2617 43.9096 30.3531C43.9932 30.3645 44.058 30.4201 44.104 30.5199C44.1712 30.5886 44.1992 30.6648 44.1878 30.7483L44.0634 31.3825C43.8564 32.1543 43.7354 32.9506 43.7005 33.7713C43.6868 34.5609 43.7004 35.4946 43.7412 36.5725L43.7932 36.8476C43.8278 37.031 43.901 37.275 44.0128 37.5795C44.0737 37.758 44.1926 37.8848 44.3697 37.9599C44.5417 38.0088 44.7145 37.9898 44.888 37.9027C45.1451 37.827 45.3686 37.7169 45.5584 37.5725C45.7695 37.397 45.9969 37.164 46.2405 36.8738C46.9978 35.998 47.7866 34.8584 48.6071 33.4551L49.4307 31.9968C49.6659 31.5182 49.8555 31.1567 49.9993 30.9124C50.0794 30.7616 50.2306 30.5566 50.453 30.2975C50.5593 30.1418 50.719 30.1252 50.9321 30.2477C51.1091 30.3228 51.1912 30.4702 51.1784 30.6897C51.1607 30.883 51.1093 31.042 51.0243 31.1666C50.3724 32.4567 49.7776 33.546 49.2399 34.4346C48.7284 35.3183 48.1414 36.1619 47.4791 36.9654C47.0866 37.4738 46.7162 37.883 46.3677 38.1931C46.0192 38.5032 45.6558 38.7346 45.2776 38.8875ZM50.8621 38.8095C50.7721 38.9079 50.6485 38.972 50.4913 39.0017C50.3603 39.0264 50.2349 39.0094 50.1153 38.9506C49.9907 38.8656 49.8979 38.7338 49.8371 38.5554C49.7911 38.4555 49.7458 38.2877 49.7012 38.0518C49.6646 37.5703 49.6551 37.2328 49.6728 37.0395L49.7527 36.1696C49.7877 35.3488 49.8481 34.5911 49.9339 33.8964C50.1581 32.4972 50.5205 30.3933 51.0213 27.5849C51.0652 27.3866 51.19 26.9696 51.3955 26.3337C51.4494 26.1878 51.5393 26.0894 51.6654 26.0385C51.7865 25.9613 51.9069 25.9521 52.0266 26.0109C52.2871 26.0974 52.3947 26.3078 52.3493 26.642L52.2026 27.1582L51.0196 33.6099C51.0083 33.6935 50.9831 33.8475 50.9441 34.072C50.9051 34.2964 50.9029 34.5004 50.9375 34.6838C50.9722 34.8672 51.0256 35.0064 51.0978 35.1013C51.6329 33.4805 52.3801 31.8332 53.3394 30.1593C53.7971 29.4215 54.237 28.8771 54.6592 28.526C54.8228 28.3865 55.0094 28.297 55.219 28.2574C55.5859 28.1881 55.9268 28.3408 56.2418 28.7155C56.3863 28.9053 56.5267 29.218 56.6633 29.6535L57.2237 31.5423C57.3652 32.0041 57.5598 32.388 57.8076 32.694C57.993 32.9575 58.2331 33.0071 58.5277 32.8429C58.896 32.6376 59.2764 32.2808 59.6689 31.7725L60.2182 31.0174L61.3489 29.4604C61.6563 29.0767 61.8738 28.7913 62.0013 28.6044C62.1289 28.4175 62.2139 28.2929 62.2564 28.2306C62.4051 28.0125 62.5886 27.9779 62.8066 28.1266C63.0198 28.2492 63.1068 28.4227 63.0678 28.6472C63.0288 28.8717 62.9455 29.0774 62.818 29.2643C62.6267 29.5447 61.9555 30.4449 60.8043 31.965L60.1838 32.7743C59.7963 33.3088 59.3242 33.683 58.7675 33.8967L58.4212 34.0028C57.8971 34.1018 57.4259 33.9059 57.0075 33.415C56.6514 32.9667 56.4157 32.5091 56.3004 32.0424C56.0125 31.0927 55.7747 30.337 55.5872 29.7754C55.5313 29.6231 55.4354 29.5463 55.2994 29.5448C55.1847 29.5122 55.0848 29.5582 54.9998 29.6828C54.5436 30.2846 54.2248 30.7519 54.0434 31.0847C52.9828 32.9405 52.1371 35 51.5062 37.2631C51.4686 37.3516 51.4034 37.581 51.3106 37.9514C51.2389 38.2905 51.0895 38.5766 50.8621 38.8095ZM66.0868 44.6855C66.0131 44.7266 65.9108 44.7595 65.7798 44.7842C65.5963 44.8189 65.4137 44.7856 65.2317 44.6843C65.0809 44.6042 64.9595 44.4643 64.8674 44.2646C64.8264 44.1909 64.791 44.0755 64.7613 43.9182C64.6623 43.3942 64.6681 42.8503 64.7788 42.2867C64.8943 41.7492 65.0917 41.142 65.3709 40.4651C65.8918 39.1997 66.7094 37.5662 67.8239 35.5646L68.0641 35.1121C68.3468 34.5974 68.4337 34.0518 68.3248 33.4753C68.2505 33.0822 68.0895 32.7327 67.8417 32.4267C67.5217 32.0258 67.1022 31.888 66.5831 32.0132C66.5307 32.0231 66.2573 32.1561 65.7629 32.4124C65.6369 32.4633 65.5264 32.5249 65.4315 32.5971C65.3628 32.6644 65.2916 32.7185 65.2179 32.7596C65.1705 32.7957 65.1074 32.8211 65.0288 32.836C64.8978 32.8607 64.7544 32.82 64.5986 32.7137C64.3756 32.5387 64.3385 32.3422 64.4873 32.1241C64.6212 31.8275 64.7944 31.5234 65.0069 31.2118C66.1526 29.2314 66.9806 27.3653 67.4909 25.6134C67.5937 25.2955 67.6954 24.8285 67.7961 24.2124L67.7887 24.1731C67.7689 24.0683 67.7148 23.9971 67.6263 23.9596C67.559 23.8909 67.4885 23.877 67.4149 23.9181C67.2676 24.0002 67.0703 24.1053 66.8231 24.2334C66.6022 24.3566 66.4205 24.4723 66.2781 24.5806C65.6038 25.0337 64.5381 26.1441 63.0809 27.912C62.9272 28.1039 62.7455 28.2196 62.5359 28.2592C62.4049 28.2839 62.2902 28.2513 62.1918 28.1614C62.1196 28.0665 62.076 27.9797 62.0612 27.9011C62.0265 27.7177 62.0861 27.53 62.2398 27.3382C64.4507 24.5323 66.2113 23.0057 67.5214 22.7582C67.8621 22.6938 68.1439 22.7491 68.3669 22.9241C68.585 23.0729 68.7262 23.3176 68.7906 23.6582C68.8302 23.8678 68.8379 24.1242 68.8137 24.4273C68.7782 24.8139 68.6463 25.4087 68.4181 26.2117C68.136 27.1606 67.567 28.53 66.711 30.32C66.626 30.4446 66.5934 30.5593 66.6132 30.6641C66.6379 30.7952 66.7888 30.8752 67.0656 30.9043C67.7766 30.9329 68.3972 31.3448 68.9274 32.1402C68.9996 32.2351 69.0637 32.3587 69.1196 32.511C69.1705 32.6371 69.2403 32.7189 69.3288 32.7564L69.4074 32.7416C69.5384 32.7168 69.6439 32.629 69.724 32.4782C69.8303 32.3225 69.9178 32.2109 69.9865 32.1437L74.4186 26.2994C74.6312 25.9879 74.8529 25.7967 75.0838 25.726C75.2049 25.6488 75.3277 25.6527 75.4523 25.7377C75.6294 25.8129 75.7115 25.9602 75.6987 26.1797C75.7071 26.3681 75.6451 26.5426 75.5126 26.7033C75.4014 26.8329 75.3221 26.9157 75.2746 26.9518L73.9379 28.7105C73.323 29.478 72.8643 30.0667 72.5618 30.4767L70.2293 33.6447C69.8107 34.158 69.552 34.8718 69.4533 35.786C69.2126 38.2467 68.576 40.5516 67.5436 42.7006C67.3623 43.0334 67.059 43.5113 66.634 44.1344C66.5539 44.2852 66.3715 44.4689 66.0868 44.6855ZM65.8684 43.0985C65.993 43.1835 66.0953 43.1506 66.1754 42.9998C67.0858 41.498 67.6528 39.8305 67.8763 37.9971C67.3174 38.9169 66.8802 39.6915 66.5649 40.3209C66.2496 40.9504 66.0097 41.6199 65.8452 42.3294C65.8339 42.413 65.8225 42.4966 65.8112 42.5801C65.7998 42.6637 65.7909 42.7603 65.7845 42.8701C65.8043 42.9749 65.8323 43.051 65.8684 43.0985ZM75.7619 22.789C75.6047 22.8187 75.4613 22.778 75.3318 22.6668C75.1972 22.5293 75.0971 22.3583 75.0313 22.1536C74.9422 21.682 75.1335 21.4016 75.6051 21.3125C75.8147 21.2729 75.9974 21.3062 76.1532 21.4125C76.3302 21.4876 76.4492 21.6144 76.51 21.7929C76.5496 22.0025 76.495 22.2163 76.3463 22.4344C76.2187 22.6213 76.0502 22.7346 75.8405 22.7742L75.7619 22.789ZM77.0976 32.8764C76.9978 32.9224 76.8692 32.9603 76.712 32.99C76.3452 33.0593 75.9978 33.0163 75.67 32.8612C75.3683 32.701 75.133 32.4605 74.9638 32.1397C74.8095 31.8975 74.668 31.4357 74.5393 30.7544C74.4102 28.6349 74.4783 26.9123 74.7436 25.5867C74.8641 25.0754 74.9987 24.7108 75.1475 24.4927C75.3012 24.3008 75.4953 24.2506 75.7296 24.342C75.8132 24.3534 75.878 24.409 75.924 24.5088C75.9912 24.5776 76.0192 24.6537 76.0078 24.7372L75.8834 25.3714C75.6764 26.1432 75.5554 26.9395 75.5205 27.7602C75.5069 28.5498 75.5204 29.4835 75.5612 30.5614L75.6132 30.8365C75.6478 31.0199 75.721 31.2639 75.8329 31.5685C75.8937 31.7469 76.0126 31.8737 76.1897 31.9488C76.3617 31.9977 76.5345 31.9787 76.7081 31.8916C76.9651 31.8159 77.1886 31.7058 77.3784 31.5614C77.5895 31.3859 77.8169 31.1529 78.0606 30.8627C78.8178 29.9869 79.6067 28.8473 80.4271 27.444L81.2507 25.9857C81.486 25.5071 81.6755 25.1456 81.8193 24.9013C81.8994 24.7505 82.0506 24.5456 82.273 24.2864C82.3793 24.1307 82.539 24.1141 82.7521 24.2366C82.9292 24.3117 83.0113 24.4591 82.9985 24.6786C82.9807 24.8719 82.9293 25.0309 82.8443 25.1555C82.1924 26.4456 81.5976 27.5349 81.0599 28.4235C80.5484 29.3072 79.9614 30.1508 79.2991 30.9544C78.9066 31.4627 78.5362 31.8719 78.1877 32.182C77.8392 32.4921 77.4758 32.7235 77.0976 32.8764ZM82.5904 34.037C82.1973 34.1112 81.935 33.9437 81.8034 33.5343C81.7836 33.4295 81.7539 33.2723 81.7143 33.0627C81.6485 32.858 81.6139 32.6746 81.6104 32.5124C81.4956 30.0374 81.6761 27.8322 82.1518 25.8969L82.8526 22.7115C82.8902 22.623 82.9147 22.5369 82.926 22.4534C82.9586 22.3386 83.0043 22.2215 83.0631 22.1018C83.1694 21.946 83.3192 21.877 83.5125 21.8948C83.7632 21.9288 83.8797 22.0425 83.8619 22.2359C83.9114 22.4979 83.9003 22.7985 83.8287 23.1377C83.7181 23.7014 83.526 24.5518 83.2523 25.689C82.9609 27.0196 82.7693 28.3041 82.6777 29.5427C82.6421 29.9293 82.6392 30.2012 82.6689 30.3585C82.6986 30.5157 82.7676 30.6655 82.8759 30.8079L82.8366 30.8153L82.8834 30.8472L83.8297 27.4525C84.2082 26.2955 84.6762 25.3251 85.2337 24.5413C85.4887 24.1674 85.743 23.8616 85.9966 23.6237C86.139 23.5154 86.2888 23.4464 86.446 23.4167C86.7604 23.3573 87.0391 23.4675 87.2819 23.7473C87.3853 23.8634 87.4805 24.0083 87.5675 24.1818C87.6758 24.3242 87.7817 24.4535 87.885 24.5696C88.2624 24.9868 88.6213 25.1633 88.962 25.0989C89.1454 25.0643 89.3558 24.9567 89.593 24.7762C90.2525 24.2445 90.8528 23.6155 91.3941 22.889C91.5216 22.7021 91.6671 22.5389 91.8308 22.3995C91.852 22.3683 91.9019 22.3453 91.9806 22.3305C92.0854 22.3107 92.1976 22.3302 92.3173 22.389C92.5042 22.5165 92.5732 22.6663 92.5243 22.8384C92.464 23.094 92.3783 23.2866 92.2671 23.4162C91.7456 24.2474 90.9973 25.0265 90.0219 25.7535C89.7846 25.934 89.4957 26.0565 89.155 26.1208C88.5 26.2446 87.9083 26.0578 87.3802 25.5606C87.3802 25.5606 87.1243 25.2832 86.6124 24.7286C86.3766 24.7732 86.1786 24.9463 86.0185 25.2479C85.5084 25.9956 85.0772 26.9454 84.725 28.0975L84.2603 29.7322C84.205 30.014 83.9711 30.8588 83.5586 32.2665C83.4118 32.7827 83.2527 33.2334 83.0813 33.6186C82.9898 33.853 82.8262 33.9924 82.5904 34.037Z" fill="white"/>
<defs>
<filter id="filter0_d_3_3" x="0.635986" y="10.9" width="107.936" height="45.1" filterUnits="userSpaceOnUse" color-interpolation-filters="sRGB">
<feFlood flood-opacity="0" result="BackgroundImageFix"/>
<feColorMatrix in="SourceAlpha" type="matrix" values="0 0 0 0 0 0 0 0 0 0 0 0 0 0 0 0 0 0 127 0" result="hardAlpha"/>
<feOffset dy="2"/>
<feGaussianBlur stdDeviation="2"/>
<feComposite in2="hardAlpha" operator="out"/>
<feColorMatrix type="matrix" values="0 0 0 0 0 0 0 0 0 0 0 0 0 0 0 0 0 0 0.25 0"/>
<feBlend mode="normal" in2="BackgroundImageFix" result="effect1_dropShadow_3_3"/>
<feBlend mode="normal" in="SourceGraphic" in2="effect1_dropShadow_3_3" result="shape"/>
</filter>
</defs>
</svg>
