<svg width="192" height="77" viewBox="0 0 192 77" fill="none" xmlns="http://www.w3.org/2000/svg">
<g filter="url(#filter0_d_5_18)">
<path d="M15.222 9.85714H4V0H37.1782V9.85714H25.9561V69H15.222V9.85714Z" fill="#FF914D"/>
<path d="M42.3752 0H55.8416L66.283 41.3014H66.4782V0H76.0413V69H65.0144L52.1335 18.63H51.9383V69H42.3752V0Z" fill="#FF914D"/>
<path d="M92.4115 9.85714H81.1895V0H114.368V9.85714H103.146V69H92.4115V9.85714Z" fill="#FF914D"/>
<path d="M117.418 59.34L137.325 9.85714H118.394V0H148.84V9.66L128.933 59.1429H148.84V69H117.418V59.34Z" fill="#FF914D"/>
<path d="M154.919 0H170.825C176.355 0 180.389 1.31429 182.926 3.94286C185.463 6.50571 186.731 10.4814 186.731 15.87V20.1086C186.731 27.2714 184.389 31.8057 179.705 33.7114V33.9086C182.308 34.6971 184.129 36.3071 185.17 38.7386C186.276 41.17 186.829 44.4229 186.829 48.4971V60.6214C186.829 62.5929 186.894 64.2029 187.024 65.4514C187.154 66.6343 187.48 67.8171 188 69H177.071C176.68 67.8829 176.42 66.8314 176.29 65.8457C176.16 64.86 176.095 63.0857 176.095 60.5229V47.9057C176.095 44.7514 175.574 42.55 174.534 41.3014C173.558 40.0529 171.834 39.4286 169.362 39.4286H165.654V69H154.919V0ZM169.557 29.5714C171.704 29.5714 173.298 29.0129 174.338 27.8957C175.444 26.7786 175.997 24.9057 175.997 22.2771V16.9543C175.997 14.4571 175.542 12.65 174.631 11.5329C173.785 10.4157 172.419 9.85714 170.533 9.85714H165.654V29.5714H169.557Z" fill="#FF914D"/>
<path d="M35.554 64.4641C35.2045 64.7327 34.8368 64.9038 34.4508 64.9775C33.6789 65.1248 32.956 64.7328 32.2822 63.8014C31.8651 63.1744 31.5472 62.2761 31.3285 61.1065C31.1006 59.8881 30.9556 58.5783 30.8934 57.1769C30.8312 55.7755 30.7923 54.8997 30.7767 54.5493C30.6555 49.6261 31.1721 43.5717 32.3267 36.3862C32.4221 35.5604 32.5507 34.7788 32.7126 34.0412L32.9908 32.3225C33.0626 31.9051 33.0757 31.5745 33.0301 31.3308C32.9846 31.0871 32.8366 30.964 32.5863 30.9613C32.3751 30.9006 32.0328 30.9407 31.5595 31.0815L25.8344 32.9311C25.6505 33.0166 25.4184 33.1114 25.1381 33.2153C24.8577 33.3193 24.5004 33.4127 24.0662 33.4956C23.7285 33.56 23.4586 33.5863 23.2565 33.5744C22.9488 33.5322 22.7526 33.4182 22.6679 33.2325L22.6269 33.0132C22.5722 32.7207 22.6564 32.5028 22.8794 32.3593C23.3345 32.121 23.978 31.8216 24.81 31.4609C26.2691 30.9806 28.791 30.1713 32.3756 29.033C33.2349 28.8186 33.7605 28.2893 33.9523 27.4451L35.086 22.6862C35.6628 20.961 36.1195 19.6625 36.4561 18.7907C36.5671 18.3153 36.749 17.9525 37.002 17.7023C37.2459 17.4034 37.4885 17.2309 37.7297 17.1849C37.9227 17.1481 38.0811 17.1935 38.205 17.3213C38.377 17.4399 38.4859 17.621 38.5314 17.8647C38.5861 18.1571 38.5475 18.6187 38.4157 19.2496C38.212 20.2979 37.684 22.4176 36.8317 25.6086C36.8017 25.7152 36.7462 25.953 36.6653 26.3217C36.5753 26.6417 36.5712 27.021 36.6533 27.4596C37.1539 27.465 37.4767 27.4539 37.6214 27.4263L38.4038 27.2013C40.6257 26.525 42.7603 25.9157 44.8075 25.3737L51.3422 23.4453C51.9121 23.2861 52.4186 23.1894 52.8619 23.1553C53.2961 23.0725 53.658 23.0034 53.9475 22.9482C54.2369 22.8929 54.4755 23.0998 54.6631 23.5687C54.736 23.9586 54.6368 24.2299 54.3656 24.3826C53.9014 24.5721 53.2924 24.7892 52.5387 25.034L37.2395 29.3919C36.7179 29.5419 36.311 29.771 36.0189 30.0791C35.7176 30.3385 35.5161 30.7303 35.4142 31.2544C34.9195 33.4182 34.3631 36.8556 33.7452 41.5665C33.1181 46.2288 32.7729 49.7268 32.7097 52.0606C32.5918 54.102 32.6857 56.6077 32.9913 59.5778C33.0368 59.8215 33.0583 60.0697 33.0556 60.3226C33.0529 60.5755 33.0744 60.8238 33.12 61.0674C33.2658 61.8472 33.6451 62.4057 34.2578 62.743C34.7311 62.6022 35.0852 62.358 35.32 62.0104C35.5639 61.7115 35.7745 61.3685 35.9519 60.9813C36.1867 60.6336 36.3387 60.3775 36.4079 60.2129C37.548 58.0269 39.0352 54.8914 40.8695 50.8064C41.1552 50.1966 41.8004 48.8369 42.8049 46.7273C43.8003 44.5689 44.5282 43.1177 44.9887 42.3737C45.0278 42.3157 45.1361 42.0932 45.3135 41.706C45.5301 41.2609 45.8614 40.8949 46.3074 40.6079C46.5786 40.4552 46.8485 40.4289 47.1171 40.5291C47.5577 40.7478 47.6985 41.0995 47.5393 41.5841C47.5666 41.7303 47.5216 41.8904 47.4042 42.0642C46.688 43.3112 45.33 46.0688 43.33 50.3368C43.0052 51.0045 42.2022 52.7224 40.9211 55.4905C39.6309 58.2099 38.417 60.5361 37.2795 62.4693C36.9247 63.2436 36.3495 63.9086 35.554 64.4641Z" fill="#004AAD"/>
<path d="M51.0087 52.0514C50.4061 52.5701 49.7672 52.894 49.0917 53.0228C48.2233 53.1886 47.4013 53.0678 46.6256 52.6606C45.8408 52.2047 45.2653 51.5322 44.8992 50.6431C44.6269 49.9884 44.4601 49.3641 44.399 48.7701C44.1234 45.6934 44.7605 42.821 46.3102 40.1531C46.7824 39.2049 47.3576 38.54 48.0357 38.1582C48.2978 37.9568 48.5977 37.8238 48.9354 37.7594C49.4361 37.7648 49.747 37.9578 49.8682 38.3385L49.9229 38.6309C49.9958 39.0208 49.8921 39.2677 49.6117 39.3716C48.9154 39.6559 48.4107 40.0299 48.0976 40.4934C47.7846 40.9569 47.4252 41.7069 47.0194 42.7433C46.5718 44.0905 46.3218 45.4253 46.2693 46.7476C46.1857 47.3692 46.2213 48.0943 46.3763 48.9227C46.5312 49.7512 46.7944 50.3571 47.1659 50.7405C47.5856 51.1147 48.1091 51.2419 48.7363 51.1222C49.1222 51.0486 49.4854 50.8531 49.8258 50.5358C50.1662 50.2184 50.416 49.8175 50.5752 49.3328C50.9627 48.199 51.0882 47.2665 50.9515 46.5355C50.8239 45.8532 50.4746 45.188 49.9037 44.5399C49.656 44.2843 49.3237 43.843 48.9066 43.216L48.8656 42.9967C48.82 42.753 48.8559 42.5442 48.9733 42.3704C49.0907 42.1966 49.2413 42.0669 49.4252 41.9814L51.6686 41.5533C52.5552 41.485 53.8651 41.0079 55.5981 40.122L59.3049 37.9005L60.4081 37.3871C60.7941 37.3135 61.1441 37.4486 61.4583 37.7924C61.5247 37.8807 61.5717 37.9979 61.599 38.1441C61.6719 38.534 61.5049 38.8435 61.0981 39.0725L59.2809 40.1764C59.0096 40.3291 58.2441 40.778 56.9844 41.5231C55.7638 42.2103 54.5159 42.7512 53.2406 43.146C52.7673 43.2868 52.4674 43.4198 52.3409 43.5448C52.2052 43.6212 52.1602 43.7812 52.2058 44.0249C52.2605 44.3173 52.3347 44.5807 52.4285 44.8152C52.6344 45.3816 52.7647 45.811 52.8193 46.1034C52.9925 47.0293 52.9531 48.021 52.7012 49.0786C52.4193 50.2428 51.8551 51.2337 51.0087 52.0514Z" fill="#004AAD"/>
<path d="M64.3172 58.9755C63.9677 59.244 63.6 59.4152 63.214 59.4888C62.4421 59.6361 61.7192 59.2441 61.0454 58.3127C60.6283 57.6857 60.3104 56.7874 60.0917 55.6178C59.8638 54.3994 59.7188 53.0896 59.6566 51.6882C59.5944 50.2868 59.5555 49.411 59.54 49.0606C59.4187 44.1374 59.9354 38.083 61.0899 30.8975C61.1853 30.0717 61.3139 29.2901 61.4758 28.5526L61.754 26.8339C61.8258 26.4164 61.8389 26.0858 61.7934 25.8421C61.7478 25.5985 61.5998 25.4753 61.3495 25.4726C61.1383 25.4119 60.796 25.452 60.3227 25.5928L54.5976 27.4424C54.4138 27.5279 54.1817 27.6227 53.9013 27.7267C53.6209 27.8306 53.2637 27.924 52.8295 28.0069C52.4917 28.0713 52.2218 28.0976 52.0197 28.0857C51.712 28.0435 51.5159 27.9295 51.4311 27.7438L51.3901 27.5245C51.3354 27.2321 51.4196 27.0141 51.6426 26.8706C52.0977 26.6324 52.7412 26.3329 53.5732 25.9722C55.0323 25.4919 57.5542 24.6826 61.1388 23.5443C61.9981 23.3299 62.5237 22.8006 62.7156 21.9564L63.8492 17.1975C64.426 15.4723 64.8827 14.1738 65.2193 13.302C65.3303 12.8266 65.5123 12.4638 65.7653 12.2136C66.0092 11.9147 66.2517 11.7422 66.493 11.6962C66.6859 11.6594 66.8444 11.7049 66.9682 11.8327C67.1403 11.9512 67.2491 12.1324 67.2947 12.376C67.3493 12.6684 67.3107 13.13 67.1789 13.7609C66.9752 14.8092 66.4472 16.9289 65.595 20.1199C65.5649 20.2266 65.5095 20.4643 65.4285 20.833C65.3385 21.153 65.3345 21.5324 65.4165 21.971C65.9172 21.9764 66.2399 21.9653 66.3846 21.9376L67.167 21.7126C69.3889 21.0363 71.5235 20.4271 73.5707 19.885L80.1055 17.9566C80.6753 17.7974 81.1819 17.7007 81.6252 17.6666C82.0594 17.5838 82.4212 17.5147 82.7107 17.4595C83.0002 17.4042 83.2387 17.6111 83.4263 18.08C83.4992 18.4699 83.4001 18.7412 83.1288 18.8939C82.6646 19.0834 82.0557 19.3006 81.302 19.5453L66.0027 23.9032C65.4811 24.0533 65.0743 24.2823 64.7821 24.5904C64.4809 24.8498 64.2793 25.2416 64.1775 25.7657C63.6827 27.9295 63.1264 31.3669 62.5084 36.0779C61.8813 40.7401 61.5361 44.2381 61.4729 46.5719C61.355 48.6133 61.4489 51.1191 61.7545 54.0891C61.8001 54.3328 61.8215 54.5811 61.8189 54.8339C61.8162 55.0868 61.8376 55.3351 61.8832 55.5787C62.029 56.3585 62.4083 56.917 63.021 57.2544C63.4943 57.1136 63.8484 56.8693 64.0832 56.5217C64.3271 56.2228 64.5378 55.8798 64.7152 55.4926C64.95 55.145 65.1019 54.8888 65.1711 54.7242C66.3112 52.5382 67.7985 49.4027 69.6328 45.3177C69.9185 44.7079 70.5636 43.3483 71.5681 41.2386C72.5635 39.0802 73.2915 37.629 73.7519 36.885C73.7911 36.8271 73.8993 36.6045 74.0768 36.2173C74.2933 35.7722 74.6246 35.4062 75.0706 35.1192C75.3418 34.9665 75.6118 34.9402 75.8803 35.0404C76.321 35.2591 76.4617 35.6108 76.3025 36.0955C76.3298 36.2417 76.2848 36.4017 76.1674 36.5755C75.4513 37.8226 74.0932 40.5801 72.0933 44.8482C71.7684 45.5158 70.9654 47.2337 69.6843 50.0018C68.3941 52.7212 67.1802 55.0474 66.0428 56.9806C65.6879 57.7549 65.1127 58.4199 64.3172 58.9755Z" fill="#004AAD"/>
<path d="M76.3695 29.5717C76.08 29.6269 75.816 29.5511 75.5774 29.3443C75.3298 29.0887 75.1454 28.7706 75.0242 28.3899C74.8602 27.5127 75.2123 26.9912 76.0807 26.8255C76.4667 26.7519 76.8031 26.8139 77.0899 27.0115C77.4158 27.1512 77.6348 27.387 77.7468 27.7189C77.8197 28.1088 77.7192 28.5065 77.4453 28.9121C77.2105 29.2598 76.9002 29.4704 76.5142 29.5441L76.3695 29.5717ZM78.8287 48.3326C78.6449 48.4181 78.4082 48.4885 78.1187 48.5438C77.4433 48.6726 76.8038 48.5928 76.2002 48.3042C75.6448 48.0064 75.2114 47.5591 74.8999 46.9624C74.6158 46.5119 74.3553 45.6531 74.1183 44.386C73.8808 40.444 74.0061 37.2403 74.4944 34.7749C74.7164 33.824 74.9643 33.1458 75.2382 32.7402C75.5212 32.3834 75.8785 32.29 76.31 32.46C76.4639 32.4811 76.5832 32.5845 76.6679 32.7702C76.7917 32.898 76.8431 33.0396 76.8222 33.195L76.5931 34.3744C76.212 35.8099 75.9893 37.2909 75.925 38.8173C75.8998 40.2858 75.9248 42.0224 75.9999 44.027L76.0956 44.5387C76.1594 44.8798 76.2942 45.3336 76.5001 45.9C76.6121 46.2319 76.8311 46.4677 77.157 46.6074C77.4738 46.6984 77.792 46.6629 78.1114 46.501C78.5848 46.3602 78.9962 46.1555 79.3457 45.8869C79.7343 45.5604 80.153 45.1272 80.6017 44.5873C81.9959 42.9585 83.4483 40.8391 84.9589 38.2291L86.4753 35.517C86.9085 34.6268 87.2574 33.9545 87.5222 33.5002C87.6696 33.2197 87.9481 32.8385 88.3576 32.3566C88.5533 32.0669 88.8473 32.036 89.2397 32.264C89.5656 32.4037 89.7168 32.6777 89.6932 33.0859C89.6605 33.4455 89.5659 33.7411 89.4094 33.9729C88.2092 36.3723 87.1141 38.3983 86.124 40.0509C85.1822 41.6943 84.1016 43.2633 82.8821 44.7578C82.1595 45.7033 81.4774 46.4644 80.8357 47.0411C80.1941 47.6178 79.5251 48.0483 78.8287 48.3326Z" fill="#004AAD"/>
<path d="M89.1107 48.1875C88.9451 48.3706 88.7176 48.4897 88.4281 48.5449C88.1869 48.591 87.9561 48.5593 87.7358 48.4499C87.5063 48.2918 87.3356 48.0468 87.2235 47.7149C87.1388 47.5291 87.0555 47.217 86.9735 46.7784C86.9059 45.8827 86.8885 45.2552 86.9212 44.8956L87.0683 43.2776C87.1326 41.7512 87.2438 40.342 87.4019 39.05C87.8146 36.4476 88.4819 32.5348 89.4038 27.3115C89.4848 26.9428 89.7145 26.1671 90.0929 24.9845C90.1921 24.7132 90.3577 24.5302 90.5898 24.4354C90.8128 24.2919 91.0345 24.2748 91.2548 24.3842C91.7346 24.545 91.9326 24.9363 91.849 25.5579L91.5789 26.518L89.4008 38.5171C89.3799 38.6725 89.3336 38.959 89.2617 39.3764C89.1899 39.7939 89.1859 40.1732 89.2497 40.5144C89.3135 40.8555 89.4119 41.1143 89.5448 41.2909C90.53 38.2764 91.9058 35.2126 93.672 32.0996C94.5147 30.7274 95.3246 29.7148 96.1019 29.0618C96.4032 28.8024 96.7468 28.6359 97.1327 28.5622C97.8082 28.4333 98.4359 28.7173 99.0159 29.4142C99.2818 29.7673 99.5405 30.3488 99.7919 31.1589L100.824 34.6718C101.084 35.5306 101.443 36.2445 101.899 36.8136C102.24 37.3036 102.682 37.396 103.225 37.0905C103.903 36.7088 104.603 36.0452 105.326 35.0997L108.419 30.7997C108.985 30.086 109.385 29.5553 109.62 29.2077C109.855 28.8601 110.012 28.6283 110.09 28.5124C110.364 28.1068 110.701 28.0424 111.103 28.3191C111.495 28.5471 111.656 28.8698 111.584 29.2873C111.512 29.7048 111.359 30.0873 111.124 30.435C110.772 30.9564 109.536 32.6307 107.416 35.4579L106.274 36.963C105.56 37.9571 104.691 38.653 103.666 39.0505L103.028 39.2478C102.064 39.432 101.196 39.0676 100.426 38.1546C99.77 37.3207 99.3361 36.4698 99.1238 35.6018C98.5936 33.8355 98.1559 32.4301 97.8106 31.3855C97.7077 31.1023 97.5311 30.9594 97.2807 30.9567C97.0695 30.896 96.8857 30.9816 96.7291 31.2134C95.8891 32.3326 95.3022 33.2017 94.9682 33.8207C93.0154 37.2721 91.4583 41.1024 90.2967 45.3114C90.2276 45.476 90.1075 45.9027 89.9365 46.5915C89.8046 47.2223 89.5294 47.7543 89.1107 48.1875Z" fill="#004AAD"/>
<path d="M117.142 59.116C117.007 59.1923 116.818 59.2535 116.577 59.2996C116.239 59.364 115.903 59.302 115.568 59.1136C115.29 58.9647 115.067 58.7045 114.897 58.333C114.822 58.196 114.757 57.9813 114.702 57.6889C114.52 56.7143 114.53 55.7028 114.734 54.6544C114.947 53.6548 115.31 52.5256 115.824 51.2666C116.783 48.9133 118.289 45.8752 120.341 42.1525L120.783 41.311C121.303 40.3536 121.463 39.3389 121.263 38.2667C121.126 37.5357 120.83 36.8857 120.373 36.3166C119.784 35.5709 119.012 35.3146 118.056 35.5474C117.96 35.5658 117.456 35.8133 116.546 36.2898C116.314 36.3846 116.11 36.4991 115.936 36.6334C115.809 36.7585 115.678 36.8592 115.543 36.9356C115.455 37.0027 115.339 37.0501 115.194 37.0777C114.953 37.1238 114.689 37.048 114.402 36.8503C113.992 36.5249 113.923 36.1594 114.197 35.7538C114.444 35.202 114.763 34.6364 115.154 34.057C117.263 30.3738 118.788 26.9031 119.728 23.645C119.917 23.0536 120.104 22.1851 120.29 21.0393L120.276 20.9662C120.239 20.7713 120.14 20.6389 119.977 20.569C119.853 20.4412 119.723 20.4155 119.588 20.4919C119.316 20.6446 118.953 20.8401 118.498 21.0783C118.091 21.3074 117.757 21.5226 117.495 21.7241C116.253 22.5666 114.291 24.6319 111.608 27.9199C111.325 28.2767 110.99 28.492 110.604 28.5656C110.363 28.6117 110.152 28.551 109.971 28.3837C109.838 28.2072 109.758 28.0458 109.73 27.8996C109.667 27.5585 109.776 27.2095 110.059 26.8526C114.13 21.6342 117.371 18.7949 119.784 18.3346C120.411 18.2149 120.93 18.3178 121.34 18.6432C121.742 18.9199 122.002 19.375 122.12 20.0085C122.193 20.3984 122.208 20.8752 122.163 21.4389C122.098 22.158 121.855 23.2642 121.435 24.7577C120.915 26.5224 119.868 29.0693 118.292 32.3984C118.135 32.6302 118.075 32.8435 118.111 33.0384C118.157 33.2821 118.435 33.431 118.945 33.4852C120.254 33.5382 121.396 34.3044 122.372 35.7837C122.505 35.9602 122.623 36.1901 122.726 36.4733C122.82 36.7077 122.948 36.8599 123.111 36.9297L123.256 36.9021C123.497 36.8561 123.692 36.6928 123.839 36.4123C124.035 36.1226 124.196 35.9152 124.322 35.7902L132.483 24.9207C132.874 24.3413 133.282 23.9858 133.707 23.8542C133.93 23.7107 134.157 23.718 134.386 23.8761C134.712 24.0158 134.863 24.2898 134.84 24.6981C134.855 25.0485 134.741 25.3731 134.497 25.672C134.292 25.913 134.146 26.067 134.059 26.1342L131.598 29.4051C130.465 30.8324 129.621 31.9274 129.064 32.6898L124.769 38.5818C123.999 39.5365 123.522 40.8639 123.341 42.5642C122.897 47.1409 121.725 51.4276 119.825 55.4243C119.491 56.0433 118.932 56.9321 118.15 58.0909C118.002 58.3714 117.667 58.7131 117.142 59.116ZM116.74 56.1643C116.97 56.3224 117.158 56.2613 117.305 55.9808C118.982 53.1877 120.026 50.0863 120.437 46.6766C119.408 48.3872 118.603 49.8278 118.023 50.9985C117.442 52.1692 117 53.4144 116.698 54.734C116.677 54.8894 116.656 55.0448 116.635 55.2002C116.614 55.3556 116.598 55.5354 116.586 55.7395C116.622 55.9345 116.674 56.0761 116.74 56.1643Z" fill="#004AAD"/>
<path d="M134.956 18.392C134.667 18.4473 134.403 18.3715 134.164 18.1646C133.916 17.909 133.732 17.5909 133.611 17.2102C133.447 16.333 133.799 15.8116 134.667 15.6459C135.053 15.5722 135.39 15.6342 135.676 15.8318C136.002 15.9715 136.221 16.2074 136.333 16.5393C136.406 16.9292 136.306 17.3269 136.032 17.7325C135.797 18.0801 135.487 18.2907 135.101 18.3644L134.956 18.392ZM137.415 37.1529C137.231 37.2385 136.995 37.3089 136.705 37.3641C136.03 37.493 135.39 37.4131 134.787 37.1245C134.231 36.8267 133.798 36.3795 133.486 35.7827C133.202 35.3322 132.942 34.4734 132.705 33.2064C132.467 29.2643 132.593 26.0606 133.081 23.5952C133.303 22.6444 133.551 21.9661 133.825 21.5606C134.108 21.2037 134.465 21.1103 134.897 21.2803C135.05 21.3014 135.17 21.4049 135.254 21.5906C135.378 21.7184 135.43 21.86 135.409 22.0154L135.18 23.1947C134.799 24.6302 134.576 26.1112 134.512 27.6377C134.486 29.1062 134.511 30.8427 134.586 32.8473L134.682 33.359C134.746 33.7002 134.881 34.1539 135.087 34.7203C135.199 35.0522 135.418 35.2881 135.744 35.4277C136.06 35.5187 136.378 35.4832 136.698 35.3213C137.171 35.1805 137.583 34.9758 137.932 34.7073C138.321 34.3807 138.74 33.9475 139.188 33.4077C140.582 31.7788 142.035 29.6594 143.545 27.0494L145.062 24.3374C145.495 23.4471 145.844 22.7749 146.109 22.3206C146.256 22.0401 146.535 21.6589 146.944 21.1769C147.14 20.8872 147.434 20.8564 147.826 21.0843C148.152 21.224 148.303 21.498 148.28 21.9063C148.247 22.2658 148.152 22.5615 147.996 22.7932C146.796 25.1926 145.701 27.2186 144.711 28.8712C143.769 30.5147 142.688 32.0837 141.469 33.5782C140.746 34.5236 140.064 35.2847 139.422 35.8614C138.781 36.4381 138.112 36.8686 137.415 37.1529Z" fill="#004AAD"/>
<path d="M147.528 39.3114C146.805 39.4495 146.322 39.1378 146.079 38.3765C146.043 38.1816 145.988 37.8892 145.915 37.4993C145.794 37.1186 145.73 36.7775 145.724 36.4759C145.513 31.8727 145.845 27.7715 146.721 24.1722L148.011 18.2478C148.08 18.0831 148.125 17.9231 148.146 17.7677C148.206 17.5544 148.291 17.3364 148.399 17.1139C148.595 16.8242 148.87 16.6958 149.226 16.7289C149.688 16.7922 149.902 17.0036 149.87 17.3632C149.961 17.8505 149.94 18.4096 149.808 19.0405C149.605 20.0888 149.251 21.6705 148.747 23.7855C148.211 26.2601 147.858 28.6492 147.689 30.9527C147.624 31.6718 147.618 32.1775 147.673 32.4699C147.728 32.7623 147.855 33.0409 148.054 33.3057L147.982 33.3195L148.068 33.3788L149.81 27.0653C150.507 24.9134 151.369 23.1086 152.395 21.6509C152.865 20.9556 153.333 20.3868 153.8 19.9444C154.062 19.743 154.338 19.6146 154.627 19.5594C155.206 19.4489 155.719 19.6538 156.166 20.1742C156.357 20.3903 156.532 20.6596 156.692 20.9824C156.892 21.2471 157.087 21.4876 157.277 21.7036C157.972 22.4796 158.633 22.8077 159.26 22.688C159.597 22.6236 159.985 22.4235 160.422 22.0877C161.636 21.099 162.741 19.9291 163.738 18.578C163.972 18.2304 164.24 17.9269 164.542 17.6675C164.581 17.6096 164.673 17.5668 164.817 17.5392C165.01 17.5023 165.217 17.5386 165.437 17.648C165.782 17.8851 165.909 18.1637 165.819 18.4838C165.708 18.9592 165.55 19.3174 165.345 19.5584C164.385 21.1043 163.007 22.5534 161.211 23.9055C160.774 24.2412 160.242 24.4689 159.615 24.5886C158.409 24.8188 157.32 24.4714 156.347 23.5466C156.347 23.5466 155.876 23.0308 154.934 21.9993C154.5 22.0822 154.135 22.4041 153.84 22.9651C152.901 24.3556 152.107 26.1223 151.459 28.2649L150.603 31.3051C150.501 31.8293 150.071 33.4004 149.311 36.0186C149.041 36.9786 148.748 37.8168 148.432 38.5332C148.264 38.9691 147.963 39.2285 147.528 39.3114Z" fill="#004AAD"/>
</g>
<defs>
<filter id="filter0_d_5_18" x="0" y="0" width="192" height="77" filterUnits="userSpaceOnUse" color-interpolation-filters="sRGB">
<feFlood flood-opacity="0" result="BackgroundImageFix"/>
<feColorMatrix in="SourceAlpha" type="matrix" values="0 0 0 0 0 0 0 0 0 0 0 0 0 0 0 0 0 0 127 0" result="hardAlpha"/>
<feOffset dy="4"/>
<feGaussianBlur stdDeviation="2"/>
<feComposite in2="hardAlpha" operator="out"/>
<feColorMatrix type="matrix" values="0 0 0 0 0 0 0 0 0 0 0 0 0 0 0 0 0 0 0.25 0"/>
<feBlend mode="normal" in2="BackgroundImageFix" result="effect1_dropShadow_5_18"/>
<feBlend mode="normal" in="SourceGraphic" in2="effect1_dropShadow_5_18" result="shape"/>
</filter>
</defs>
</svg>
